<mxfile host="app.diagrams.net" modified="2022-05-23T04:14:32.898Z" agent="5.0 (Macintosh; Intel Mac OS X 10_15_7) AppleWebKit/537.36 (KHTML, like Gecko) Chrome/101.0.0.0 Safari/537.36" etag="2LqHmalvjrvjS5swv0qs" version="18.0.6" type="github">
  <diagram id="uwumi9f9K0oqjMDWhUd3" name="Page-1">
    <mxGraphModel dx="872" dy="563" grid="1" gridSize="10" guides="1" tooltips="1" connect="1" arrows="1" fold="1" page="1" pageScale="1" pageWidth="827" pageHeight="1169" math="0" shadow="0">
      <root>
        <mxCell id="0" />
        <mxCell id="1" parent="0" />
        <mxCell id="Drypm2CtMlCzhZXtER1A-1" value="" style="endArrow=classic;html=1;rounded=0;" edge="1" parent="1">
          <mxGeometry width="50" height="50" relative="1" as="geometry">
            <mxPoint x="160" y="400" as="sourcePoint" />
            <mxPoint x="160" y="10" as="targetPoint" />
          </mxGeometry>
        </mxCell>
        <mxCell id="Drypm2CtMlCzhZXtER1A-2" value="剩余内存&lt;br style=&quot;font-size: 16px;&quot;&gt;&lt;span style=&quot;caret-color: rgb(184, 191, 198); font-family: &amp;quot;Helvetica Neue&amp;quot;, Helvetica, Arial, sans-serif; font-size: 16px; orphans: 4; text-align: left; text-size-adjust: auto;&quot;&gt;pages_free&lt;/span&gt;" style="text;html=1;align=center;verticalAlign=middle;resizable=0;points=[];autosize=1;strokeColor=none;fillColor=none;fontSize=16;labelBackgroundColor=none;fontColor=default;" vertex="1" parent="1">
          <mxGeometry x="60" y="30" width="90" height="40" as="geometry" />
        </mxCell>
        <mxCell id="Drypm2CtMlCzhZXtER1A-3" value="" style="endArrow=none;dashed=1;html=1;dashPattern=1 3;strokeWidth=2;rounded=0;fontSize=16;fontColor=default;" edge="1" parent="1">
          <mxGeometry width="50" height="50" relative="1" as="geometry">
            <mxPoint x="120" y="120" as="sourcePoint" />
            <mxPoint x="400" y="120" as="targetPoint" />
          </mxGeometry>
        </mxCell>
        <mxCell id="Drypm2CtMlCzhZXtER1A-4" value="" style="endArrow=none;dashed=1;html=1;dashPattern=1 3;strokeWidth=2;rounded=0;fontSize=16;fontColor=default;" edge="1" parent="1">
          <mxGeometry width="50" height="50" relative="1" as="geometry">
            <mxPoint x="120" y="200" as="sourcePoint" />
            <mxPoint x="400" y="200" as="targetPoint" />
          </mxGeometry>
        </mxCell>
        <mxCell id="Drypm2CtMlCzhZXtER1A-5" value="" style="endArrow=none;dashed=1;html=1;dashPattern=1 3;strokeWidth=2;rounded=0;fontSize=16;fontColor=default;" edge="1" parent="1">
          <mxGeometry width="50" height="50" relative="1" as="geometry">
            <mxPoint x="120" y="280" as="sourcePoint" />
            <mxPoint x="400" y="280" as="targetPoint" />
          </mxGeometry>
        </mxCell>
        <mxCell id="Drypm2CtMlCzhZXtER1A-7" value="页高阈值（pages_high）" style="text;html=1;align=center;verticalAlign=middle;resizable=0;points=[];autosize=1;strokeColor=#6c8ebf;fillColor=#dae8fc;fontSize=16;" vertex="1" parent="1">
          <mxGeometry x="400" y="110" width="190" height="20" as="geometry" />
        </mxCell>
        <mxCell id="Drypm2CtMlCzhZXtER1A-8" value="页低阈值（pages_low）" style="text;html=1;align=center;verticalAlign=middle;resizable=0;points=[];autosize=1;strokeColor=#d79b00;fillColor=#ffe6cc;fontSize=16;" vertex="1" parent="1">
          <mxGeometry x="400" y="190" width="190" height="20" as="geometry" />
        </mxCell>
        <mxCell id="Drypm2CtMlCzhZXtER1A-9" value="&lt;span style=&quot;caret-color: rgb(184, 191, 198); font-family: &amp;quot;Helvetica Neue&amp;quot;, Helvetica, Arial, sans-serif; orphans: 4; text-align: left; text-size-adjust: auto;&quot;&gt;最小阈值（pages_min）&lt;/span&gt;" style="text;html=1;align=center;verticalAlign=middle;resizable=0;points=[];autosize=1;strokeColor=#b85450;fillColor=#f8cecc;fontSize=16;labelBackgroundColor=none;" vertex="1" parent="1">
          <mxGeometry x="400" y="270" width="190" height="20" as="geometry" />
        </mxCell>
        <mxCell id="Drypm2CtMlCzhZXtER1A-11" value="内存分配正常" style="rounded=0;whiteSpace=wrap;html=1;labelBackgroundColor=none;fontSize=16;fillColor=#dae8fc;strokeColor=#6c8ebf;" vertex="1" parent="1">
          <mxGeometry x="160" y="120" width="200" height="80" as="geometry" />
        </mxCell>
        <mxCell id="Drypm2CtMlCzhZXtER1A-12" value="内存充足" style="rounded=0;whiteSpace=wrap;html=1;labelBackgroundColor=none;fontSize=16;fillColor=#d5e8d4;strokeColor=#82b366;" vertex="1" parent="1">
          <mxGeometry x="160" y="40" width="200" height="80" as="geometry" />
        </mxCell>
        <mxCell id="Drypm2CtMlCzhZXtER1A-13" value="内存压力大" style="rounded=0;whiteSpace=wrap;html=1;labelBackgroundColor=none;fontSize=16;fillColor=#ffe6cc;strokeColor=#d79b00;" vertex="1" parent="1">
          <mxGeometry x="160" y="200" width="200" height="80" as="geometry" />
        </mxCell>
        <mxCell id="Drypm2CtMlCzhZXtER1A-14" value="内存基本耗尽" style="rounded=0;whiteSpace=wrap;html=1;labelBackgroundColor=none;fontSize=16;fillColor=#f8cecc;strokeColor=#b85450;" vertex="1" parent="1">
          <mxGeometry x="160" y="280" width="200" height="80" as="geometry" />
        </mxCell>
      </root>
    </mxGraphModel>
  </diagram>
</mxfile>
